<svg xmlns="http://www.w3.org/2000/svg" xmlns:xlink="http://www.w3.org/1999/xlink" width="60.844" height="59.706" viewBox="0 0 60.844 59.706" preserveAspectRatio="xMinYMin">
  <defs>
    <clipPath id="clip-path">
      <rect id="Rechteck_172" data-name="Rechteck 172" width="60.844" height="59.706" fill="none"/>
    </clipPath>
  </defs>
  <g id="Gruppe_518" data-name="Gruppe 518" transform="translate(0 0)">
    <g id="Gruppe_517" data-name="Gruppe 517" transform="translate(0 0)" clip-path="url(#clip-path)">
      <path id="Pfad_7674" data-name="Pfad 7674" d="M47.414,54.382H25.358v-6a5.133,5.133,0,0,0,3.81.566,1.766,1.766,0,0,0,.49-.139l.2-.081a5.362,5.362,0,0,0-3.369-10.18,5.428,5.428,0,0,0-1.131.528V33.117h8.992a.818.818,0,0,0,.49-1.473,3.276,3.276,0,1,1,3.926,0,.818.818,0,0,0,.49,1.473h8.18Zm-23.692,0H1.636V33.117h6.3a5.216,5.216,0,0,0-.8,2.781,5.4,5.4,0,0,0,10.8,0,5.2,5.2,0,0,0-.8-2.781h6.589v7.831a.818.818,0,0,0,1.48.48,3.563,3.563,0,0,1,1.8-1.324,3.725,3.725,0,0,1,2.539,7c-.079.029-.157.054-.237.077l-.069.029a1.8,1.8,0,0,0-.209.082l-.059.023a.963.963,0,0,0-.143.024,3.467,3.467,0,0,1-3.256-.835c-.049-.049-.114-.114-.187-.183s-.126-.119-.17-.164a.829.829,0,0,0-.676-.353.818.818,0,0,0-.818.818ZM1.636,10.216H23.722V16.29a5.362,5.362,0,1,0,0,9.116v6.075H15.28a.818.818,0,0,0-.49,1.473A3.621,3.621,0,0,1,16.3,35.9a3.763,3.763,0,1,1-7.525,0,3.616,3.616,0,0,1,1.5-2.944.818.818,0,0,0-.49-1.473H1.636ZM48.26,31.481h-7.2a4.908,4.908,0,1,0-8.493,0h-7.2v-7.91a.818.818,0,0,0-1.473-.49,3.726,3.726,0,1,1-.746-5.217,3.805,3.805,0,0,1,.746.746.818.818,0,0,0,1.473-.49V9.4a.819.819,0,0,0-.818-.818H.818A.818.818,0,0,0,0,9.4V55.2a.819.819,0,0,0,.818.819H48.23a.818.818,0,0,0,.819-.818l.029-22.9a.818.818,0,0,0-.818-.818" transform="translate(0 3.687)" fill="#294772"/>
      <path id="Pfad_7675" data-name="Pfad 7675" d="M42.922,27.705l-4.8-1.963a5.767,5.767,0,0,0,1.554-2.248,5.362,5.362,0,1,0-10.345-1.457l-4.718-1.925,2.928-6.945a.817.817,0,0,0-1.2-1,3.14,3.14,0,0,1-2.83.39,3.272,3.272,0,0,1,2.268-6.14A3.431,3.431,0,0,1,27.8,8.653a.818.818,0,0,0,1.54.076l2.817-6.844L50.473,9.442ZM52.294,8.683a.823.823,0,0,0-.443-.442L32.023.063a.819.819,0,0,0-1.069.445L28.491,6.49a4.891,4.891,0,1,0-5.539,7.6,4.525,4.525,0,0,0,2.335.223l-2.5,5.929a.817.817,0,0,0,.436,1.071l.009,0,7.133,2.908a.818.818,0,0,0,1.012-1.172A3.165,3.165,0,0,1,31.293,20,3.726,3.726,0,1,1,38.2,22.787c-.01.027-.021.053-.033.079a3.22,3.22,0,0,1-2.182,2.178.818.818,0,0,0-.109,1.554l7.175,2.928a.819.819,0,0,0,1.069-.443L52.294,9.306a.819.819,0,0,0,0-.623" transform="translate(8.487 0)" fill="#294772"/>
    </g>
  </g>
</svg>
