<svg xmlns="http://www.w3.org/2000/svg" xmlns:xlink="http://www.w3.org/1999/xlink" width="50.404" height="50.213" viewBox="0 0 50.404 50.213" preserveAspectRatio="xMinYMin">
  <defs>
    <clipPath id="clip-path">
      <rect id="Rechteck_173" data-name="Rechteck 173" width="50.404" height="50.213" fill="none"/>
    </clipPath>
  </defs>
  <g id="Gruppe_520" data-name="Gruppe 520" transform="translate(0 0)">
    <g id="Gruppe_519" data-name="Gruppe 519" transform="translate(0 0)" clip-path="url(#clip-path)">
      <path id="Pfad_7676" data-name="Pfad 7676" d="M32.238,1.7a5.958,5.958,0,1,1-5.881,5.958A5.921,5.921,0,0,1,32.238,1.7m0,13.617A7.61,7.61,0,0,0,39.8,7.659a7.561,7.561,0,1,0-15.121,0,7.62,7.62,0,0,0,7.561,7.659" transform="translate(10.606 -0.001)" fill="#294772"/>
      <path id="Pfad_7677" data-name="Pfad 7677" d="M32.238,38.022a5.959,5.959,0,1,1,5.881-5.958,5.919,5.919,0,0,1-5.881,5.958m0-13.617A7.66,7.66,0,1,0,39.8,32.064,7.61,7.61,0,0,0,32.238,24.4" transform="translate(10.606 10.489)" fill="#294772"/>
      <path id="Pfad_7678" data-name="Pfad 7678" d="M16.155,14.373l10.08-5.958.846,1.47L17,15.843Z" transform="translate(6.943 3.616)" fill="#294772"/>
      <path id="Pfad_7679" data-name="Pfad 7679" d="M16.155,22.384,17,20.914l10.081,5.957-.846,1.471Z" transform="translate(6.943 8.988)" fill="#294772"/>
      <path id="Pfad_7680" data-name="Pfad 7680" d="M17.04,26.733a6.869,6.869,0,0,0-3.8-4.48,4.106,4.106,0,0,0,.2-5.752,3.98,3.98,0,0,0-5.676-.2,4.109,4.109,0,0,0-.2,5.752c.064.067.129.133.2.2a6.867,6.867,0,0,0-3.8,4.48,9.019,9.019,0,0,1,.621-12.622,8.739,8.739,0,0,1,12.459.629,9.023,9.023,0,0,1,0,11.993M8.164,19.3A2.336,2.336,0,1,1,10.5,21.662,2.35,2.35,0,0,1,8.164,19.3M5.42,28.05a5.1,5.1,0,0,1,10.16,0,8.671,8.671,0,0,1-10.16,0M10.5,10.119a10.639,10.639,0,0,0,0,21.277,10.639,10.639,0,0,0,0-21.277" transform="translate(0 4.349)" fill="#294772"/>
    </g>
  </g>
</svg>
