<svg xmlns="http://www.w3.org/2000/svg" xmlns:xlink="http://www.w3.org/1999/xlink" width="48.964" height="54.84" viewBox="0 0 48.964 54.84" preserveAspectRatio="xMinYMin">
  <defs>
    <clipPath id="clip-path">
      <rect id="Rechteck_175" data-name="Rechteck 175" width="48.964" height="54.84" fill="none"/>
    </clipPath>
  </defs>
  <g id="Gruppe_524" data-name="Gruppe 524" transform="translate(0 0)">
    <g id="Gruppe_523" data-name="Gruppe 523" transform="translate(0 0)" clip-path="url(#clip-path)">
      <path id="Pfad_7684" data-name="Pfad 7684" d="M22.228,19.944A6.168,6.168,0,1,0,28.4,26.112a6.168,6.168,0,0,0-6.168-6.168m0,1.371a4.8,4.8,0,1,1-4.8,4.8,4.8,4.8,0,0,1,4.8-4.8" transform="translate(6.902 8.572)" fill="#294772"/>
      <path id="Pfad_7685" data-name="Pfad 7685" d="M36.436,42.067H35.065V36.234a2.1,2.1,0,0,0-.878-1.776,14.03,14.03,0,0,0-5.459-2.614,18.027,18.027,0,0,0-4.661-.759,14.728,14.728,0,0,0-4.561.743,17.161,17.161,0,0,0-5.516,2.628,2.263,2.263,0,0,0-.882,1.782v5.829h-1.37V36.234a3.64,3.64,0,0,1,1.44-2.878,18.472,18.472,0,0,1,5.935-2.838,16.063,16.063,0,0,1,4.969-.8,19.267,19.267,0,0,1,4.994.808A15.255,15.255,0,0,1,35,33.362a3.441,3.441,0,0,1,1.428,2.891Z" transform="translate(5.045 12.772)" fill="#294772"/>
      <path id="Pfad_7686" data-name="Pfad 7686" d="M10.494,13.222a6.168,6.168,0,1,0,6.168,6.168,6.168,6.168,0,0,0-6.168-6.168m0,1.371a4.8,4.8,0,1,1-4.8,4.8,4.8,4.8,0,0,1,4.8-4.8" transform="translate(1.859 5.683)" fill="#294772"/>
      <path id="Pfad_7687" data-name="Pfad 7687" d="M21.628,25.524A15.153,15.153,0,0,0,17.346,23.8a19.286,19.286,0,0,0-5-.806,16.022,16.022,0,0,0-4.974.8A18.418,18.418,0,0,0,1.44,26.632,3.644,3.644,0,0,0,0,29.51v5.836H1.371V29.514a2.256,2.256,0,0,1,.881-1.782A17.191,17.191,0,0,1,7.768,25.1a14.757,14.757,0,0,1,4.568-.742,18.069,18.069,0,0,1,4.66.761,14.009,14.009,0,0,1,5.091,2.342,7.378,7.378,0,0,1-.459-1.942" transform="translate(0 9.883)" fill="#294772"/>
      <path id="Pfad_7688" data-name="Pfad 7688" d="M41.455,0H15.569a1.44,1.44,0,0,0-1.425,1.447V19.1a1.44,1.44,0,0,0,1.411,1.467h4.126V26.35l5.682-5.785H41.455a1.444,1.444,0,0,0,1.431-1.446V1.447A1.446,1.446,0,0,0,41.455,0m-.011,1.371a.076.076,0,0,1,.073.076V19.121a.078.078,0,0,1-.061.076H24.788l-.4.41L21.052,23v-3.8H15.579c-.033,0-.069-.037-.069-.1V1.44a.067.067,0,0,1,.054-.069H41.443" transform="translate(6.078 0)" fill="#294772"/>
      <path id="Pfad_7689" data-name="Pfad 7689" d="M25.453,2.342h-.069a4.46,4.46,0,0,0-.479,0,4.043,4.043,0,0,0-3.8,4.131v.084h1.377V6.47c0-.1,0-.207.011-.31A2.673,2.673,0,0,1,25.166,3.72c.076,0,.15,0,.224.01H25.5a2.861,2.861,0,0,1,2.81,2.9A2.64,2.64,0,0,1,25.4,9.284h-.686v3.37H26.1V10.62l.21-.024a3.86,3.86,0,0,0,3.386-3.968V6.534a4.253,4.253,0,0,0-4.238-4.192" transform="translate(9.07 1.004)" fill="#294772"/>
      <path id="Pfad_7690" data-name="Pfad 7690" d="M24.447,12.659a1.111,1.111,0,1,1,.029,0h-.029Z" transform="translate(10.024 4.474)" fill="#294772"/>
    </g>
  </g>
</svg>
