<svg xmlns="http://www.w3.org/2000/svg" xmlns:xlink="http://www.w3.org/1999/xlink" viewBox="0 0 59.423 43.224" preserveAspectRatio="xMinYMin" width="59.423" height="43.224">
  <defs>
    <clipPath id="clip-path">
      <rect id="Rechteck_176" data-name="Rechteck 176" width="59.423" height="43.224" fill="none"/>
    </clipPath>
  </defs>
  <g id="Gruppe_526" data-name="Gruppe 526" transform="translate(0 0)">
    <g id="Gruppe_525" data-name="Gruppe 525" transform="translate(0 0.001)" clip-path="url(#clip-path)">
      <path id="Pfad_7691" data-name="Pfad 7691" d="M50.972,40.963a2.432,2.432,0,0,1-3.336.359l-7.8-7.691a1.835,1.835,0,0,1-.508-1.506,2.873,2.873,0,0,1,.879-1.773,2.928,2.928,0,0,1,2-.872,1.866,1.866,0,0,1,1.333.513l7.8,7.689a1.839,1.839,0,0,1,.508,1.507,2.851,2.851,0,0,1-.879,1.772Zm-35.8-14.6a14.435,14.435,0,0,1,0-20.644,15,15,0,0,1,20.971,0,14.435,14.435,0,0,1,0,20.644,14.894,14.894,0,0,1-20.829.139Zm29.369,2.647a3.736,3.736,0,0,0-4.8-.086L37.622,26.83a15.835,15.835,0,0,0-1-22.622,16.448,16.448,0,0,0-22.982.985,15.835,15.835,0,0,0,1,22.621,16.456,16.456,0,0,0,21.983,0L38.745,29.9a4.136,4.136,0,0,0-.826,2.1,3.2,3.2,0,0,0,.915,2.611l7.8,7.691a3.281,3.281,0,0,0,2.333.919,4.431,4.431,0,0,0,4.292-3.912,3.2,3.2,0,0,0-.915-2.609Z" transform="translate(4.024 -0.001)" fill="#294772"/>
      <path id="Pfad_7692" data-name="Pfad 7692" d="M22.908,5.813a5.571,5.571,0,1,1-5.659,5.571,5.615,5.615,0,0,1,5.659-5.571m0,12.534a6.964,6.964,0,1,0-7.075-6.963,7.02,7.02,0,0,0,7.075,6.963" transform="translate(6.805 1.899)" fill="#294772"/>
      <path id="Pfad_7693" data-name="Pfad 7693" d="M30.28,16.077a22.074,22.074,0,0,0-6.331-.944,24.332,24.332,0,0,0-10.54,2.592,13.637,13.637,0,0,0,.968,1.084,22.8,22.8,0,0,1,9.572-2.283,20.641,20.641,0,0,1,5.934.888,24.653,24.653,0,0,1,3.642,1.333,13.406,13.406,0,0,0,.965-1.09,25.582,25.582,0,0,0-4.209-1.58" transform="translate(5.763 6.504)" fill="#294772"/>
      <path id="Pfad_7694" data-name="Pfad 7694" d="M33.782,3.012a4.867,4.867,0,0,1,1.154,9.61c.071.462.12.929.153,1.4a6.268,6.268,0,0,0,4.966-7.392,6.363,6.363,0,0,0-7.511-4.888,6.43,6.43,0,0,0-2.511,1.1c.327.336.645.682.942,1.038a4.963,4.963,0,0,1,2.807-.866" transform="translate(12.908 0.692)" fill="#294772"/>
      <path id="Pfad_7695" data-name="Pfad 7695" d="M43.558,15.418a17.064,17.064,0,0,0-6.108-2.94,18.439,18.439,0,0,0-3.819-.716c-.02.466-.061.929-.117,1.388a16.972,16.972,0,0,1,3.537.665A15.676,15.676,0,0,1,42.667,16.5a2.372,2.372,0,0,1,.938,1.822v5.919h1.415V18.323a3.766,3.766,0,0,0-1.463-2.905" transform="translate(14.404 5.055)" fill="#294772"/>
      <path id="Pfad_7696" data-name="Pfad 7696" d="M10.819,3.006a4.979,4.979,0,0,1,2.774.844c.3-.356.618-.7.947-1.038A6.427,6.427,0,0,0,5.659,4.22a6.2,6.2,0,0,0,1.43,8.74A6.4,6.4,0,0,0,9.46,14c.033-.469.083-.937.153-1.4A4.868,4.868,0,0,1,6.031,6.682a4.939,4.939,0,0,1,4.788-3.676" transform="translate(1.914 0.698)" fill="#294772"/>
      <path id="Pfad_7697" data-name="Pfad 7697" d="M7.578,12.469a20.379,20.379,0,0,0-6.109,2.938A3.766,3.766,0,0,0,0,18.318v5.919H1.414V18.318a2.357,2.357,0,0,1,.912-1.8,18.832,18.832,0,0,1,5.632-2.7,20.873,20.873,0,0,1,3.5-.651c-.057-.459-.1-.921-.117-1.387a22.047,22.047,0,0,0-3.76.695" transform="translate(0 5.06)" fill="#294772"/>
      <path id="Pfad_7698" data-name="Pfad 7698" d="M11.875,23.878V28.4H13.29V23.878a2.349,2.349,0,0,1,.911-1.8c.046-.034.1-.063.142-.1-.4-.267-.8-.556-1.18-.855a3.734,3.734,0,0,0-1.288,2.755" transform="translate(5.104 9.078)" fill="#294772"/>
    </g>
  </g>
</svg>
