<svg xmlns="http://www.w3.org/2000/svg" xmlns:xlink="http://www.w3.org/1999/xlink" width="373" height="63.183" viewBox="0 0 373 63.183">
  <defs>
    <clipPath id="clip-path">
      <rect id="Rechteck_4" data-name="Rechteck 4" width="373" height="63.183" fill="none"/>
    </clipPath>
  </defs>
  <g id="Gruppe_156" data-name="Gruppe 156" transform="translate(-139 -102.116)">
    <g id="Gruppe_149" data-name="Gruppe 149" transform="translate(139 102.116)">
      <g id="Gruppe_148" data-name="Gruppe 148" transform="translate(0 0)" clip-path="url(#clip-path)">
        <path id="Pfad_91" data-name="Pfad 91" d="M0,37.638H14.3v6.933a2.527,2.527,0,0,0,2.515,2.771A2.681,2.681,0,0,0,19.589,44.4V41.8C19.589,34,.437,35.557.437,19.7c0-6.762,1.558-15.863,17.158-15.863,6.5,0,16.295,2.515,16.295,12.914v4.77h-14.3v-4.77c0-2.163-.871-3.031-2.344-3.031s-2.51.695-2.51,3.031v1.994c0,3.121,5.2,4.849,11.875,8.665,7.017,4.073,7.886,8.149,7.886,15.079,0,11.269-7.28,14.737-18.284,14.737C6.328,57.224,0,54.017,0,43.182Z" transform="translate(0 5.959)" fill="#a7b4cb"/>
        <path id="Pfad_92" data-name="Pfad 92" d="M14.152,9.09h3.2v-7.8H33.3v7.8h4.078v8.32H33.3V49.476c0,1.473.521,2.081,1.905,2.081h2.173v8.32h-8.5c-10.4,0-11.53-4.073-11.53-11.959V17.41h-3.2Z" transform="translate(21.987 2.006)" fill="#a7b4cb"/>
        <path id="Pfad_93" data-name="Pfad 93" d="M24.163,20.651c0-13.172,9.709-16.816,18.2-16.816,7.452,0,17.161,4.073,17.161,16.816V31.31H39.592V44.571c0,1.994.434,3.294,2.339,3.294,2.166,0,2.686-1.65,2.686-3.555v-9.1H59.526v5.2c0,13.177-9.014,16.816-17.161,16.816-8.493,0-18.2-3.639-18.2-16.816ZM39.592,22.99h5.026V16.749c0-1.908-.521-3.552-2.686-3.552-1.905,0-2.339,1.3-2.339,3.294Z" transform="translate(37.541 5.959)" fill="#a7b4cb"/>
        <rect id="Rechteck_2" data-name="Rechteck 2" width="15.422" height="61.883" transform="translate(100.188)" fill="#a7b4cb"/>
        <rect id="Rechteck_3" data-name="Rechteck 3" width="15.429" height="61.883" transform="translate(119.424)" fill="#a7b4cb"/>
        <path id="Pfad_94" data-name="Pfad 94" d="M54.3,20.651c0-13.172,9.706-16.816,18.195-16.816,7.454,0,17.166,4.073,17.166,16.816V31.31H69.724V44.571c0,1.994.437,3.294,2.337,3.294,2.171,0,2.692-1.65,2.692-3.555v-9.1H89.661v5.2c0,13.177-9.02,16.816-17.166,16.816-8.488,0-18.195-3.639-18.195-16.816ZM69.724,22.99h5.028V16.749c0-1.908-.521-3.552-2.692-3.552-1.9,0-2.337,1.3-2.337,3.294Z" transform="translate(84.364 5.959)" fill="#a7b4cb"/>
        <path id="Pfad_95" data-name="Pfad 95" d="M69.536,5.137H84.963v3.9h.171c1.213-2.515,4.681-5.2,9.359-5.2,6.5,0,10.488,4.249,10.488,13.522V55.925H89.554V17.88c0-1.565-.429-3.644-2.426-3.644-2.081,0-2.165,2.168-2.165,3.726V55.925H69.536Z" transform="translate(108.035 5.959)" fill="#a7b4cb"/>
        <path id="Pfad_96" data-name="Pfad 96" d="M98.7,4.345l2.86,36.745h.171l3.9-36.745h13.259l4.073,36.745h.171l2.339-36.745h13.177l-5.9,50.787H115.516L112.48,27.657h-.174l-3.723,27.475H90.988L84.4,4.345Z" transform="translate(131.129 6.75)" fill="#1f4776"/>
        <path id="Pfad_97" data-name="Pfad 97" d="M106.459,20.651c0-13.172,9.714-16.816,18.2-16.816,7.454,0,17.158,4.073,17.158,16.816V31.31H121.886V44.571c0,1.994.437,3.294,2.339,3.294,2.171,0,2.684-1.65,2.684-3.555v-9.1H141.82v5.2c0,13.177-9.012,16.816-17.158,16.816-8.488,0-18.2-3.639-18.2-16.816Zm15.427,2.339h5.023V16.749c0-1.908-.513-3.552-2.684-3.552-1.9,0-2.339,1.3-2.339,3.294Z" transform="translate(165.401 5.959)" fill="#1f4776"/>
        <path id="Pfad_98" data-name="Pfad 98" d="M121.7,5.137h14.911v6.5h.171a11.48,11.48,0,0,1,9.533-7.8V22.3a25.4,25.4,0,0,0-2.6-.176c-4.162,0-6.588,2.689-6.588,6.675V55.925H121.7Z" transform="translate(189.074 5.959)" fill="#1f4776"/>
        <path id="Pfad_99" data-name="Pfad 99" d="M132.217,0h15.427V28.948h.176L152.672,11.1h13.519l-6.149,20.281,7.538,30.506H152.672L147.82,40.475h-.176V61.883H132.217Z" transform="translate(205.42 0)" fill="#1f4776"/>
      </g>
    </g>
  </g>
</svg>
