<?xml version="1.0" standalone="no"?>
<!DOCTYPE svg PUBLIC "-//W3C//DTD SVG 20010904//EN"
 "http://www.w3.org/TR/2001/REC-SVG-20010904/DTD/svg10.dtd">
<svg version="1.0" xmlns="http://www.w3.org/2000/svg"
 width="128.000000pt" height="128.000000pt" viewBox="0 0 128.000000 128.000000"
 preserveAspectRatio="xMidYMid meet">
<g transform="translate(0.000000,128.000000) scale(0.100000,-0.100000)"
fill="#000000" stroke="none">
<path d="M0 640 l0 -640 640 0 640 0 0 640 0 640 -640 0 -640 0 0 -640z m767
438 c57 -21 118 -80 130 -125 4 -16 8 -57 8 -93 l0 -65 -122 -3 -123 -3 0 45
c0 69 -14 98 -48 94 -25 -3 -27 -7 -30 -53 -4 -63 8 -75 138 -145 164 -89 194
-132 194 -280 1 -81 -3 -102 -23 -144 -46 -92 -149 -132 -321 -124 -183 9
-250 77 -250 253 l0 85 125 0 125 0 0 -75 c0 -72 1 -76 26 -87 23 -11 29 -10
45 11 11 13 19 37 19 55 0 55 -31 89 -121 136 -168 86 -213 146 -212 282 0 63
5 87 28 133 38 78 86 107 215 129 44 7 143 -6 197 -26z"/>
</g>
</svg>
